<svg width="291" height="500" viewBox="0 0 291 500" fill="none" xmlns="http://www.w3.org/2000/svg">
<g clip-path="url(#clip0)">
<path d="M145.661 492.634C137.574 492.63 129.503 491.92 121.539 490.511C46.5279 477.3 -3.71873 405.577 9.50123 330.626C14.7989 299.984 30.3992 272.065 53.7241 251.483C75.0704 232.569 101.721 220.675 130.062 217.413L145.574 129.512L223.359 143.219L207.781 231.368C235.492 245.366 257.677 268.287 270.755 296.431C283.833 324.576 287.042 356.303 279.864 386.494C272.686 416.684 255.539 443.578 231.19 462.835C206.842 482.092 176.712 492.59 145.661 492.634Z" fill="white"/>
<path d="M151.524 138.043L214.796 149.192L199.546 235.573C225.964 247.565 247.641 267.997 261.165 293.652C274.689 319.307 279.292 348.729 274.249 377.285C263.066 440.671 207.915 485.268 145.661 485.268C137.996 485.265 130.347 484.592 122.799 483.259C51.6939 470.744 4.22128 402.972 16.7511 331.905C27.3981 271.605 77.8323 228.341 136.314 224.236L151.524 138.043ZM139.57 120.981L137.011 135.485L123.717 210.817C89.5848 215.965 58.3963 233.074 35.7247 259.087C13.053 285.1 0.375485 318.322 -0.0425452 352.817C-0.460576 387.311 11.4081 420.83 33.4427 447.384C55.4773 473.939 86.242 491.798 120.239 497.77C141.055 501.461 162.427 500.564 182.86 495.142C203.292 489.72 222.294 479.903 238.536 466.378C256.722 451.25 270.943 431.919 279.967 410.059C288.991 388.2 292.546 364.471 290.324 340.929C288.102 317.386 280.169 294.74 267.214 274.953C254.259 255.165 236.671 238.833 215.975 227.37L229.323 151.75L231.875 137.272L217.356 134.715L154.11 123.539L139.597 120.981H139.57Z" fill="#191257"/>
<path d="M122.832 483.634C189.227 495.319 252.72 454.727 271.06 391.454L264.882 395.157C258.556 398.686 245.698 405.677 236.438 403.467C226.971 401.177 221.094 389.693 213.885 381.222C206.883 372.832 198.547 367.455 188.53 367.301C178.513 367.147 166.419 372.075 156.368 371.928C146.15 371.7 138.016 366.397 127.797 366.176C117.747 366.022 105.686 370.95 97.9202 364.616C90.1544 358.281 86.3418 340.509 78.5827 334.208C70.6494 327.8 58.7494 332.802 50.4141 327.445C42.2798 322.088 37.7101 306.439 35.5123 298.651L33.5022 291.58C33.3682 291.098 33.2543 290.603 33.1605 290.1L32.8254 288.232C24.7234 301.782 19.1541 316.692 16.3893 332.233C3.84604 402.302 51.7207 471.112 122.832 483.634Z" fill="url(#paint0_linear)"/>
<path d="M248.385 162.303C247.3 162.303 246.218 162.209 245.149 162.022L118.001 139.616C113.157 138.755 108.852 136.01 106.029 131.982C103.207 127.954 102.098 122.972 102.946 118.128L108.976 83.9237C109.727 79.6284 111.971 75.7359 115.312 72.9319C118.654 70.1279 122.878 68.5925 127.241 68.5961C128.327 68.5953 129.41 68.6916 130.478 68.884L257.632 91.2896C260.033 91.7102 262.329 92.5996 264.386 93.9069C266.444 95.2142 268.223 96.9139 269.623 98.9088C271.023 100.904 272.016 103.155 272.546 105.533C273.075 107.912 273.13 110.371 272.708 112.771L266.677 146.975C265.926 151.275 263.678 155.171 260.331 157.976C256.984 160.78 252.753 162.313 248.385 162.303Z" fill="white"/>
<path d="M127.248 75.9619C127.904 75.9643 128.558 76.0225 129.205 76.136L256.352 98.5416C259.274 99.0561 261.872 100.709 263.575 103.138C265.278 105.567 265.945 108.572 265.431 111.492L259.401 145.696C258.944 148.284 257.591 150.628 255.578 152.317C253.565 154.007 251.021 154.935 248.392 154.937C247.738 154.938 247.085 154.88 246.442 154.763L119.268 132.357C116.346 131.843 113.747 130.19 112.045 127.761C110.342 125.332 109.675 122.327 110.189 119.407L116.219 85.2027C116.677 82.616 118.031 80.2727 120.043 78.5832C122.056 76.8937 124.599 75.9658 127.228 75.9619H127.248ZM127.228 61.2302C121.129 61.2247 115.224 63.3713 110.553 67.2914C105.883 71.2115 102.747 76.6536 101.699 82.6581L95.6688 116.862C94.4842 123.629 96.0331 130.59 99.9759 136.217C103.919 141.844 109.933 145.68 116.702 146.882L243.896 169.274C245.387 169.535 246.898 169.667 248.412 169.669C254.511 169.674 260.416 167.528 265.087 163.608C269.757 159.688 272.893 154.245 273.941 148.241L279.971 114.037C281.158 107.269 279.609 100.308 275.666 94.6804C271.723 89.0526 265.707 85.2178 258.938 84.0175L131.764 61.6052C130.273 61.3439 128.762 61.2117 127.248 61.2101L127.228 61.2302Z" fill="#191257"/>
<path d="M151.48 316.227C153.621 304.08 145.503 292.499 133.349 290.359C121.195 288.22 109.606 296.332 107.465 308.479C105.324 320.625 113.442 332.206 125.596 334.346C137.75 336.486 149.339 328.373 151.48 316.227Z" fill="url(#paint1_linear)"/>
<path d="M212.203 304.189C222.398 304.189 230.663 295.93 230.663 285.741C230.663 275.552 222.398 267.293 212.203 267.293C202.008 267.293 193.743 275.552 193.743 285.741C193.743 295.93 202.008 304.189 212.203 304.189Z" fill="url(#paint2_linear)"/>
<path d="M222.28 71.8705C232.475 71.8705 240.74 63.611 240.74 53.4224C240.74 43.2339 232.475 34.9744 222.28 34.9744C212.085 34.9744 203.821 43.2339 203.821 53.4224C203.821 63.611 212.085 71.8705 222.28 71.8705Z" fill="url(#paint3_linear)"/>
<path d="M169.206 25.151C176.156 25.151 181.79 19.5208 181.79 12.5755C181.79 5.63024 176.156 0 169.206 0C162.256 0 156.623 5.63024 156.623 12.5755C156.623 19.5208 162.256 25.151 169.206 25.151Z" fill="url(#paint4_linear)"/>
</g>
<defs>
<linearGradient id="paint0_linear" x1="158.519" y1="330.679" x2="83.3598" y2="469.866" gradientUnits="userSpaceOnUse">
<stop stop-color="#191257"/>
<stop offset="1" stop-color="#FF1180"/>
</linearGradient>
<linearGradient id="paint1_linear" x1="149.824" y1="284.203" x2="112.028" y2="336.564" gradientUnits="userSpaceOnUse">
<stop stop-color="#FF1180"/>
<stop offset="1" stop-color="#191257"/>
</linearGradient>
<linearGradient id="paint2_linear" x1="230.663" y1="262.806" x2="207.423" y2="310.812" gradientUnits="userSpaceOnUse">
<stop stop-color="#FF1180"/>
<stop offset="1" stop-color="#191257"/>
</linearGradient>
<linearGradient id="paint3_linear" x1="240.74" y1="30.487" x2="217.5" y2="78.4929" gradientUnits="userSpaceOnUse">
<stop stop-color="#FF1180"/>
<stop offset="1" stop-color="#191257"/>
</linearGradient>
<linearGradient id="paint4_linear" x1="181.79" y1="-3.0589" x2="165.948" y2="29.6653" gradientUnits="userSpaceOnUse">
<stop stop-color="#FF1180"/>
<stop offset="1" stop-color="#191257"/>
</linearGradient>
<clipPath id="clip0">
<rect width="291" height="500" fill="white"/>
</clipPath>
</defs>
</svg>
